<?xml version="1.0" encoding="UTF-8"?>
<svg id="b" data-name="Layer 2" xmlns="http://www.w3.org/2000/svg" width="49.663" height="50" viewBox="0 0 49.663 50">
  <g id="c" data-name="Layer 1">
    <path d="M24.831,14.581c4.759,0,8.763,3.193,10.01,7.552h14.821C48.239,9.677,37.668,0,24.831,0S1.424,9.677,0,22.132H14.821c1.247-4.358,5.251-7.552,10.01-7.552Z"/>
      <path d="M24.831,35.419c-4.758,0-8.763-3.193-10.01-7.551H0c1.424,12.456,11.995,22.132,24.831,22.132s23.408-9.677,24.831-22.132h-14.821c-1.247,4.358-5.252,7.551-10.01,7.551Z"/>
      <path d="M24.831,19.706c-2.924,0-5.294,2.37-5.294,5.294s2.37,5.294,5.294,5.294,5.294-2.37,5.294-5.294-2.37-5.294-5.294-5.294Z"/>
  </g>
</svg>